<?xml version="1.0" encoding="iso-8859-1"?>
<!-- Generator: Adobe Illustrator 19.0.0, SVG Export Plug-In . SVG Version: 6.00 Build 0)  -->
<svg version="1.1" id="Layer_1" xmlns="http://www.w3.org/2000/svg" xmlns:xlink="http://www.w3.org/1999/xlink" x="0px" y="0px"
	 viewBox="0 0 512 512" style="enable-background:new 0 0 512 512;" xml:space="preserve">
<rect x="68.267" y="56.889" style="fill:#C9E3F7;" width="375.467" height="455.111"/>
<rect x="256" y="56.889" style="fill:#78B9EB;" width="187.733" height="455.111"/>
<g>
	<rect x="273.067" y="295.822" style="fill:#3C5D76;" width="34.133" height="125.156"/>
	<rect x="341.333" y="329.956" style="fill:#3C5D76;" width="34.133" height="91.022"/>
</g>
<g>
	<rect x="204.8" y="341.333" style="fill:#78B9EB;" width="34.133" height="79.644"/>
	<rect x="136.533" y="318.578" style="fill:#78B9EB;" width="34.133" height="102.4"/>
	<rect x="136.533" y="227.556" style="fill:#78B9EB;" width="238.933" height="34.133"/>
</g>
<rect x="256" y="227.556" style="fill:#3C5D76;" width="119.467" height="34.133"/>
<path style="fill:#FF9811;" d="M312.889,56.889C312.889,25.47,287.419,0,256,0s-56.889,25.47-56.889,56.889h-62.578v79.644h238.933
	V56.889H312.889z"/>
<path style="fill:#FF5023;" d="M312.889,56.889C312.889,25.47,287.419,0,256,0v136.533h119.467V56.889H312.889z"/>
<g>
</g>
<g>
</g>
<g>
</g>
<g>
</g>
<g>
</g>
<g>
</g>
<g>
</g>
<g>
</g>
<g>
</g>
<g>
</g>
<g>
</g>
<g>
</g>
<g>
</g>
<g>
</g>
<g>
</g>
</svg>
